<svg width="47" height="50" viewBox="0 0 47 50" fill="none" xmlns="http://www.w3.org/2000/svg">
<path d="M46.3932 10C46.3932 4.47715 41.916 0 36.3932 0H5.72205e-05V50H36.3932C41.916 50 46.3932 45.5228 46.3932 40V10Z" fill="#6B6D6F"/>
<g clip-path="url(#clip0_1_263)">
<path fill-rule="evenodd" clip-rule="evenodd" d="M33.8751 19.3527C34.3038 19.7981 34.3038 20.5193 33.8751 20.9635L24.7852 30.3828C23.9266 31.2725 22.5338 31.2725 21.6753 30.3828L12.5183 20.8953C12.094 20.4545 12.0885 19.7423 12.5073 19.2958C12.935 18.839 13.6396 18.8347 14.0738 19.2835L22.4525 27.9669C22.8823 28.4123 23.5782 28.4123 24.008 27.9669L32.3207 19.3527C32.7494 18.9074 33.4464 18.9074 33.8751 19.3527Z" fill="#E6F5FB"/>
</g>
<defs>
<clipPath id="clip0_1_263">
<rect width="22" height="22" fill="white" transform="matrix(1 0 0 -1 12.1966 36)"/>
</clipPath>
</defs>
</svg>
