<svg width="50" height="50" viewBox="0 0 50 50" fill="none" xmlns="http://www.w3.org/2000/svg">
<path d="M0 5.55556C0 4.08213 0.526784 2.66905 1.46447 1.62718C2.40215 0.585316 3.67392 0 5 0L45 0C46.3261 0 47.5979 0.585316 48.5355 1.62718C49.4732 2.66905 50 4.08213 50 5.55556V44.4444C50 45.9179 49.4732 47.3309 48.5355 48.3728C47.5979 49.4147 46.3261 50 45 50H5C3.67392 50 2.40215 49.4147 1.46447 48.3728C0.526784 47.3309 0 45.9179 0 44.4444L0 5.55556ZM15 5.55556H5V44.4444H15V5.55556ZM20 5.55556V44.4444H30V5.55556H20ZM35 5.55556V44.4444H45V5.55556H35Z" fill="#207496"/>
</svg>
