<?xml version="1.0" standalone="no"?>
<!DOCTYPE svg PUBLIC "-//W3C//DTD SVG 20010904//EN"
 "http://www.w3.org/TR/2001/REC-SVG-20010904/DTD/svg10.dtd">
<svg version="1.0" xmlns="http://www.w3.org/2000/svg"
 width="869.000000pt" height="1486.000000pt" viewBox="0 0 869.000000 1486.000000"
 preserveAspectRatio="xMidYMid meet">

<g transform="translate(0.000000,1486.000000) scale(0.100000,-0.100000)"
fill="#000000" stroke="none">
<path d="M4285 8130 c-138 -28 -236 -121 -271 -259 -30 -121 9 -247 105 -333
74 -67 144 -91 246 -86 131 7 224 66 286 180 32 59 34 69 34 158 0 76 -4 104
-21 141 -45 97 -136 170 -243 195 -62 15 -78 16 -136 4z m215 -192 c0 -2 -15
-55 -33 -118 l-32 -115 -115 -32 c-62 -18 -116 -31 -118 -28 -6 6 48 217 59
229 13 15 240 76 239 64z"/>
<path d="M4314 7816 c-15 -40 21 -80 54 -60 37 24 21 74 -25 74 -13 0 -26 -6
-29 -14z"/>
</g>
</svg>