<svg width="235" height="227" viewBox="0 0 235 227" fill="none" xmlns="http://www.w3.org/2000/svg">
<path fill-rule="evenodd" clip-rule="evenodd" d="M117.417 156.834C141.38 156.834 160.834 137.38 160.834 113.417C160.834 89.4539 141.38 70 117.417 70C93.4539 70 74 89.4539 74 113.417C74 137.38 93.4539 156.834 117.417 156.834ZM144.665 152.093L148.157 155.586C148.785 156.213 149.804 156.213 150.431 155.586C151.06 154.957 151.06 153.939 150.431 153.312L146.94 149.819C146.311 149.192 145.294 149.192 144.665 149.819C144.038 150.446 144.038 151.466 144.665 152.093ZM86.7565 155.504L90.2491 152.013C90.8763 151.384 90.8763 150.366 90.2491 149.737C89.622 149.11 88.6025 149.11 87.9754 149.737L84.4827 153.23C83.8556 153.857 83.8556 154.877 84.4827 155.504C85.1099 156.132 86.1294 156.132 86.7565 155.504ZM77.3431 116.633C78.9415 136.791 95.4366 152.781 115.809 153.585V148.758C98.1011 147.964 83.7639 134.127 82.1849 116.633H77.3431ZM152.649 116.633C151.07 134.127 136.732 147.964 119.025 148.758V153.585C139.397 152.781 155.892 136.791 157.49 116.633H152.649ZM82.1286 151.037L85.6196 147.546C86.2467 146.917 86.2467 145.899 85.6196 145.27C84.9925 144.643 83.973 144.643 83.3459 145.27L79.8532 148.763C79.2261 149.39 79.2261 150.409 79.8532 151.037C80.482 151.665 81.4998 151.665 82.1286 151.037ZM149.132 147.464L152.625 150.956C153.252 151.583 154.271 151.583 154.898 150.956C155.527 150.329 155.527 149.31 154.898 148.682L151.407 145.19C150.779 144.563 149.761 144.563 149.132 145.19C148.505 145.817 148.505 146.836 149.132 147.464ZM153.761 142.996L157.254 146.489C157.881 147.116 158.901 147.116 159.528 146.489C160.155 145.862 160.155 144.842 159.528 144.215L156.035 140.723C155.408 140.096 154.389 140.096 153.761 140.723C153.134 141.35 153.134 142.369 153.761 142.996ZM77.6599 146.409L81.1525 142.916C81.7796 142.289 81.7796 141.269 81.1525 140.642C80.5254 140.014 79.5059 140.014 78.8788 140.642L75.3861 144.133C74.759 144.762 74.759 145.78 75.3861 146.409C76.0133 147.036 77.0327 147.036 77.6599 146.409ZM121.106 128.991C121.541 129.671 121.794 130.478 121.794 131.346C121.794 133.762 119.832 135.723 117.417 135.723C115.002 135.723 113.04 133.762 113.04 131.346C113.04 130.478 113.292 129.671 113.728 128.991C114.206 128.243 113.988 127.247 113.241 126.768C112.495 126.291 111.498 126.508 111.02 127.255C110.263 128.436 109.824 129.84 109.824 131.346C109.824 135.537 113.226 138.939 117.417 138.939C121.607 138.939 125.01 135.537 125.01 131.346C125.01 129.84 124.571 128.436 123.814 127.255C123.336 126.508 122.339 126.291 121.593 126.768C120.845 127.247 120.628 128.243 121.106 128.991ZM119.025 131.806V126.281C119.025 125.393 118.304 124.673 117.417 124.673C116.529 124.673 115.809 125.393 115.809 126.281V131.806C115.809 132.694 116.529 133.414 117.417 133.414C118.304 133.414 119.025 132.694 119.025 131.806ZM131.889 75.9047C127.398 74.168 122.517 73.2161 117.417 73.2161C112.316 73.2161 107.436 74.168 102.945 75.9047V102.161C102.945 109.728 109.452 115.829 117.417 115.829C125.381 115.829 131.889 109.728 131.889 102.161V75.9047ZM99.7285 77.3117C86.3995 83.8612 77.2161 97.5745 77.2161 113.417H82.0401C82.0401 100.334 89.1573 88.8992 99.7285 82.779V77.3117ZM135.105 77.3117V82.779C145.676 88.8992 152.793 100.334 152.793 113.417H157.617C157.617 97.5745 148.434 83.8612 135.105 77.3117ZM117.417 90.9044C111.205 90.9044 106.161 95.9488 106.161 102.161C106.161 108.372 111.205 113.417 117.417 113.417C123.629 113.417 128.673 108.372 128.673 102.161C128.673 95.9488 123.629 90.9044 117.417 90.9044ZM75.3861 82.8144L78.8788 86.307C79.5059 86.9341 80.5254 86.9341 81.1525 86.307C81.7796 85.6783 81.7796 84.6604 81.1525 84.0317L77.6599 80.5406C77.0327 79.9119 76.0133 79.9119 75.3861 80.5406C74.759 81.1678 74.759 82.1872 75.3861 82.8144ZM156.035 86.225L159.528 82.734C160.155 82.1052 160.155 81.0874 159.528 80.4586C158.901 79.8315 157.881 79.8315 157.254 80.4586L153.761 83.9513C153.134 84.5784 153.134 85.5979 153.761 86.225C154.389 86.8537 155.408 86.8537 156.035 86.225ZM151.407 81.7579L154.898 78.2653C155.527 77.6381 155.527 76.6203 154.898 75.9915C154.271 75.3644 153.252 75.3644 152.625 75.9915L149.132 79.4842C148.505 80.1113 148.505 81.1308 149.132 81.7579C149.761 82.385 150.779 82.385 151.407 81.7579ZM79.8532 78.1849L83.3459 81.6775C83.973 82.3046 84.9925 82.3046 85.6196 81.6775C86.2467 81.0504 86.2467 80.0309 85.6196 79.4038L82.1286 75.9111C81.4998 75.284 80.482 75.284 79.8532 75.9111C79.2261 76.5382 79.2261 77.5577 79.8532 78.1849ZM84.4827 73.7178L87.9754 77.2104C88.6025 77.8375 89.622 77.8375 90.2491 77.2104C90.8763 76.5817 90.8763 75.5638 90.2491 74.9366L86.7565 71.444C86.1294 70.8169 85.1099 70.8169 84.4827 71.444C83.8556 72.0711 83.8556 73.0906 84.4827 73.7178ZM146.94 77.1284L150.431 73.6374C151.06 73.0086 151.06 71.9907 150.431 71.362C149.804 70.7349 148.785 70.7349 148.157 71.362L144.665 74.8546C144.038 75.4818 144.038 76.5013 144.665 77.1284C145.294 77.7571 146.311 77.7571 146.94 77.1284Z" fill="#E6F5FB"/>
<path d="M122.485 7.43972C120.108 3.89265 114.892 3.89266 112.515 7.43973L90.2576 40.6603C87.5867 44.6467 90.4438 50 95.2422 50H139.758C144.556 50 147.413 44.6467 144.742 40.6603L122.485 7.43972Z" fill="#E6F5FB"/>
<path d="M109.741 31.7273V39H108.569L105.142 34.0462H105.082V39H103.764V31.7273H104.943L108.366 36.6847H108.43V31.7273H109.741ZM117.675 35.3636C117.675 36.1473 117.528 36.8184 117.235 37.3771C116.943 37.9335 116.546 38.3596 116.041 38.6555C115.539 38.9515 114.97 39.0994 114.333 39.0994C113.696 39.0994 113.126 38.9515 112.622 38.6555C112.12 38.3572 111.722 37.9299 111.428 37.3736C111.137 36.8149 110.992 36.1449 110.992 35.3636C110.992 34.58 111.137 33.91 111.428 33.3537C111.722 32.795 112.12 32.3677 112.622 32.0717C113.126 31.7758 113.696 31.6278 114.333 31.6278C114.97 31.6278 115.539 31.7758 116.041 32.0717C116.546 32.3677 116.943 32.795 117.235 33.3537C117.528 33.91 117.675 34.58 117.675 35.3636ZM116.35 35.3636C116.35 34.812 116.264 34.3468 116.091 33.968C115.921 33.5869 115.684 33.2992 115.381 33.1051C115.078 32.9086 114.729 32.8104 114.333 32.8104C113.938 32.8104 113.589 32.9086 113.286 33.1051C112.983 33.2992 112.745 33.5869 112.572 33.968C112.401 34.3468 112.316 34.812 112.316 35.3636C112.316 35.9152 112.401 36.3816 112.572 36.7628C112.745 37.1416 112.983 37.4292 113.286 37.6257C113.589 37.8198 113.938 37.9169 114.333 37.9169C114.729 37.9169 115.078 37.8198 115.381 37.6257C115.684 37.4292 115.921 37.1416 116.091 36.7628C116.264 36.3816 116.35 35.9152 116.35 35.3636ZM118.92 39V31.7273H121.648C122.206 31.7273 122.675 31.8243 123.054 32.0185C123.435 32.2126 123.723 32.4848 123.917 32.8352C124.113 33.1832 124.212 33.5893 124.212 34.0533C124.212 34.5196 124.112 34.9245 123.913 35.2678C123.717 35.6087 123.427 35.8726 123.043 36.0597C122.66 36.2443 122.189 36.3366 121.63 36.3366H119.688V35.2429H121.452C121.779 35.2429 122.047 35.1979 122.255 35.108C122.463 35.0156 122.617 34.8819 122.717 34.7067C122.818 34.5291 122.869 34.3113 122.869 34.0533C122.869 33.7952 122.818 33.575 122.717 33.3928C122.615 33.2081 122.46 33.0684 122.251 32.9737C122.043 32.8767 121.774 32.8281 121.445 32.8281H120.238V39H118.92ZM122.678 35.7045L124.478 39H123.008L121.239 35.7045H122.678ZM127.889 39H125.424V31.7273H127.939C128.661 31.7273 129.281 31.8729 129.799 32.1641C130.32 32.4529 130.72 32.8684 131 33.4105C131.279 33.9527 131.419 34.6013 131.419 35.3565C131.419 36.1141 131.278 36.7652 130.996 37.3097C130.717 37.8542 130.313 38.272 129.785 38.5632C129.26 38.8544 128.627 39 127.889 39ZM126.742 37.8601H127.825C128.332 37.8601 128.754 37.7678 129.093 37.5831C129.431 37.3961 129.686 37.1179 129.856 36.7486C130.027 36.3769 130.112 35.9129 130.112 35.3565C130.112 34.8002 130.027 34.3385 129.856 33.9716C129.686 33.6023 129.434 33.3265 129.1 33.1442C128.768 32.9595 128.356 32.8672 127.864 32.8672H126.742V37.8601Z" fill="#B2C9D6"/>
<path d="M121.485 219.56C119.108 223.107 113.892 223.107 111.515 219.56L89.2576 186.34C86.5867 182.353 89.4438 177 94.2422 177H138.758C143.556 177 146.413 182.353 143.742 186.34L121.485 219.56Z" fill="#E6F5FB"/>
<path d="M110.133 186.727C110.099 186.416 109.96 186.175 109.714 186.002C109.47 185.829 109.153 185.743 108.762 185.743C108.487 185.743 108.252 185.784 108.055 185.867C107.859 185.95 107.708 186.062 107.604 186.205C107.5 186.347 107.447 186.509 107.444 186.691C107.444 186.843 107.479 186.974 107.547 187.085C107.618 187.196 107.714 187.291 107.835 187.369C107.956 187.445 108.09 187.509 108.236 187.561C108.383 187.613 108.531 187.657 108.68 187.692L109.362 187.863C109.637 187.927 109.901 188.013 110.154 188.122C110.41 188.231 110.638 188.368 110.839 188.534C111.043 188.7 111.204 188.9 111.322 189.134C111.441 189.369 111.5 189.643 111.5 189.958C111.5 190.384 111.391 190.759 111.173 191.084C110.955 191.406 110.64 191.658 110.229 191.84C109.819 192.02 109.323 192.11 108.741 192.11C108.175 192.11 107.684 192.022 107.267 191.847C106.853 191.672 106.528 191.416 106.294 191.08C106.062 190.744 105.936 190.335 105.917 189.852H107.214C107.233 190.105 107.311 190.316 107.448 190.484C107.585 190.652 107.764 190.777 107.984 190.86C108.207 190.943 108.455 190.984 108.73 190.984C109.016 190.984 109.267 190.942 109.483 190.857C109.701 190.769 109.871 190.648 109.994 190.494C110.117 190.338 110.18 190.156 110.182 189.947C110.18 189.758 110.124 189.602 110.015 189.479C109.907 189.353 109.754 189.249 109.557 189.166C109.363 189.081 109.136 189.005 108.876 188.939L108.048 188.726C107.449 188.572 106.976 188.339 106.628 188.026C106.282 187.711 106.109 187.294 106.109 186.773C106.109 186.344 106.225 185.969 106.457 185.647C106.692 185.325 107.01 185.075 107.412 184.898C107.815 184.718 108.271 184.628 108.78 184.628C109.296 184.628 109.748 184.718 110.136 184.898C110.527 185.075 110.833 185.323 111.056 185.64C111.278 185.955 111.393 186.317 111.4 186.727H110.133ZM117.259 184.727H118.576V189.479C118.576 190 118.453 190.458 118.207 190.853C117.963 191.248 117.62 191.557 117.177 191.78C116.734 192 116.217 192.11 115.625 192.11C115.031 192.11 114.513 192 114.07 191.78C113.627 191.557 113.284 191.248 113.04 190.853C112.796 190.458 112.674 190 112.674 189.479V184.727H113.992V189.369C113.992 189.672 114.058 189.942 114.191 190.178C114.326 190.415 114.515 190.601 114.759 190.736C115.003 190.868 115.292 190.935 115.625 190.935C115.959 190.935 116.248 190.868 116.492 190.736C116.738 190.601 116.927 190.415 117.06 190.178C117.193 189.942 117.259 189.672 117.259 189.369V184.727ZM122.473 192H120.008V184.727H122.523C123.245 184.727 123.865 184.873 124.383 185.164C124.904 185.453 125.304 185.868 125.584 186.411C125.863 186.953 126.003 187.601 126.003 188.357C126.003 189.114 125.862 189.765 125.58 190.31C125.301 190.854 124.897 191.272 124.369 191.563C123.844 191.854 123.211 192 122.473 192ZM121.326 190.86H122.409C122.916 190.86 123.338 190.768 123.677 190.583C124.015 190.396 124.27 190.118 124.44 189.749C124.611 189.377 124.696 188.913 124.696 188.357C124.696 187.8 124.611 187.339 124.44 186.972C124.27 186.602 124.018 186.326 123.684 186.144C123.352 185.96 122.94 185.867 122.448 185.867H121.326V190.86Z" fill="#B2C9D6"/>
<path d="M227.56 114.515C231.107 116.892 231.107 122.108 227.56 124.485L194.34 146.742C190.353 149.413 185 146.556 185 141.758V97.2422C185 92.4438 190.353 89.5867 194.34 92.2576L227.56 114.515Z" fill="#E6F5FB"/>
<path d="M196.092 119.864C196.092 120.647 195.945 121.318 195.652 121.877C195.36 122.433 194.963 122.86 194.458 123.156C193.956 123.451 193.387 123.599 192.75 123.599C192.113 123.599 191.543 123.451 191.039 123.156C190.537 122.857 190.139 122.43 189.845 121.874C189.554 121.315 189.409 120.645 189.409 119.864C189.409 119.08 189.554 118.41 189.845 117.854C190.139 117.295 190.537 116.868 191.039 116.572C191.543 116.276 192.113 116.128 192.75 116.128C193.387 116.128 193.956 116.276 194.458 116.572C194.963 116.868 195.36 117.295 195.652 117.854C195.945 118.41 196.092 119.08 196.092 119.864ZM194.767 119.864C194.767 119.312 194.681 118.847 194.508 118.468C194.338 118.087 194.101 117.799 193.798 117.605C193.495 117.409 193.146 117.31 192.75 117.31C192.355 117.31 192.006 117.409 191.703 117.605C191.4 117.799 191.162 118.087 190.989 118.468C190.818 118.847 190.733 119.312 190.733 119.864C190.733 120.415 190.818 120.882 190.989 121.263C191.162 121.642 191.4 121.929 191.703 122.126C192.006 122.32 192.355 122.417 192.75 122.417C193.146 122.417 193.495 122.32 193.798 122.126C194.101 121.929 194.338 121.642 194.508 121.263C194.681 120.882 194.767 120.415 194.767 119.864ZM201.922 116.227H203.239V120.979C203.239 121.5 203.116 121.958 202.87 122.353C202.626 122.748 202.283 123.057 201.84 123.28C201.398 123.5 200.88 123.61 200.288 123.61C199.694 123.61 199.176 123.5 198.733 123.28C198.29 123.057 197.947 122.748 197.703 122.353C197.459 121.958 197.337 121.5 197.337 120.979V116.227H198.655V120.869C198.655 121.172 198.721 121.442 198.854 121.678C198.989 121.915 199.178 122.101 199.422 122.236C199.666 122.368 199.955 122.435 200.288 122.435C200.622 122.435 200.911 122.368 201.155 122.236C201.401 122.101 201.591 121.915 201.723 121.678C201.856 121.442 201.922 121.172 201.922 120.869V116.227ZM204.671 123.5V116.227H209.402V117.332H205.989V119.306H209.157V120.411H205.989V122.396H209.43V123.5H204.671ZM214.698 118.227C214.665 117.916 214.525 117.675 214.279 117.502C214.035 117.329 213.718 117.243 213.327 117.243C213.053 117.243 212.817 117.284 212.621 117.367C212.424 117.45 212.274 117.562 212.17 117.705C212.065 117.847 212.012 118.009 212.01 118.191C212.01 118.343 212.044 118.474 212.113 118.585C212.184 118.696 212.28 118.791 212.4 118.869C212.521 118.945 212.655 119.009 212.802 119.061C212.949 119.113 213.097 119.157 213.246 119.192L213.927 119.363C214.202 119.427 214.466 119.513 214.719 119.622C214.975 119.731 215.204 119.868 215.405 120.034C215.608 120.2 215.769 120.4 215.888 120.634C216.006 120.869 216.065 121.143 216.065 121.458C216.065 121.884 215.956 122.259 215.739 122.584C215.521 122.906 215.206 123.158 214.794 123.34C214.384 123.52 213.888 123.61 213.306 123.61C212.74 123.61 212.249 123.522 211.832 123.347C211.418 123.172 211.094 122.916 210.859 122.58C210.627 122.244 210.502 121.835 210.483 121.352H211.779C211.798 121.605 211.876 121.816 212.013 121.984C212.151 122.152 212.329 122.277 212.55 122.36C212.772 122.443 213.021 122.484 213.295 122.484C213.582 122.484 213.833 122.442 214.048 122.357C214.266 122.269 214.436 122.148 214.56 121.994C214.683 121.838 214.745 121.656 214.748 121.447C214.745 121.258 214.69 121.102 214.581 120.979C214.472 120.853 214.319 120.749 214.123 120.666C213.929 120.581 213.701 120.505 213.441 120.439L212.614 120.226C212.015 120.072 211.541 119.839 211.193 119.526C210.847 119.211 210.675 118.794 210.675 118.273C210.675 117.844 210.791 117.469 211.023 117.147C211.257 116.825 211.575 116.575 211.978 116.398C212.38 116.218 212.836 116.128 213.345 116.128C213.861 116.128 214.313 116.218 214.702 116.398C215.092 116.575 215.399 116.823 215.621 117.14C215.844 117.455 215.959 117.817 215.966 118.227H214.698ZM216.92 117.332V116.227H222.723V117.332H220.475V123.5H219.168V117.332H216.92Z" fill="#B2C9D6"/>
<path d="M7.43972 114.515C3.89265 116.892 3.89266 122.108 7.43973 124.485L40.6603 146.742C44.6467 149.413 50 146.556 50 141.758L50 97.2422C50 92.4438 44.6467 89.5867 40.6603 92.2576L7.43972 114.515Z" fill="#E6F5FB"/>
<path d="M20.6324 123.5V116.227H25.3625V117.332H21.9498V119.306H25.1175V120.411H21.9498V122.396H25.3909V123.5H20.6324ZM30.659 118.227C30.6259 117.916 30.4862 117.675 30.24 117.502C29.9961 117.329 29.6789 117.243 29.2883 117.243C29.0136 117.243 28.7781 117.284 28.5816 117.367C28.3851 117.45 28.2348 117.562 28.1306 117.705C28.0264 117.847 27.9732 118.009 27.9708 118.191C27.9708 118.343 28.0051 118.474 28.0738 118.585C28.1448 118.696 28.2407 118.791 28.3614 118.869C28.4822 118.945 28.6159 119.009 28.7627 119.061C28.9095 119.113 29.0574 119.157 29.2066 119.192L29.8884 119.363C30.163 119.427 30.427 119.513 30.6803 119.622C30.936 119.731 31.1644 119.868 31.3657 120.034C31.5693 120.2 31.7303 120.4 31.8486 120.634C31.967 120.869 32.0262 121.143 32.0262 121.458C32.0262 121.884 31.9173 122.259 31.6995 122.584C31.4817 122.906 31.1668 123.158 30.7549 123.34C30.3453 123.52 29.8493 123.61 29.267 123.61C28.7011 123.61 28.2099 123.522 27.7932 123.347C27.3789 123.172 27.0546 122.916 26.8202 122.58C26.5882 122.244 26.4627 121.835 26.4438 121.352H27.74C27.7589 121.605 27.837 121.816 27.9743 121.984C28.1117 122.152 28.2904 122.277 28.5106 122.36C28.7331 122.443 28.9817 122.484 29.2563 122.484C29.5428 122.484 29.7937 122.442 30.0091 122.357C30.2269 122.269 30.3974 122.148 30.5205 121.994C30.6436 121.838 30.7064 121.656 30.7087 121.447C30.7064 121.258 30.6507 121.102 30.5418 120.979C30.4329 120.853 30.2802 120.749 30.0837 120.666C29.8896 120.581 29.6623 120.505 29.4019 120.439L28.5745 120.226C27.9755 120.072 27.502 119.839 27.154 119.526C26.8084 119.211 26.6356 118.794 26.6356 118.273C26.6356 117.844 26.7516 117.469 26.9836 117.147C27.218 116.825 27.5364 116.575 27.9388 116.398C28.3413 116.218 28.797 116.128 29.306 116.128C29.8221 116.128 30.2743 116.218 30.6626 116.398C31.0532 116.575 31.3598 116.823 31.5823 117.14C31.8048 117.455 31.9197 117.817 31.9268 118.227H30.659ZM32.8811 117.332V116.227H38.6837V117.332H36.4358V123.5H35.129V117.332H32.8811Z" fill="#B2C9D6"/>
<g clip-path="url(#clip0_0_1)">
<path d="M117.5 103.062C118.363 103.062 119.062 102.363 119.062 101.5C119.062 100.637 118.363 99.9375 117.5 99.9375C116.637 99.9375 115.938 100.637 115.938 101.5C115.938 102.363 116.637 103.062 117.5 103.062Z" fill="#6B6D6F"/>
<path d="M117.5 89C110.597 89 105 94.5969 105 101.5C105 108.403 110.597 114 117.5 114C124.403 114 130 108.403 130 101.5C130 94.5969 124.403 89 117.5 89ZM120.625 104.625L112.031 106.969L114.375 98.375L122.969 96.0312L120.625 104.625Z" fill="#6B6D6F"/>
</g>
<defs>
<clipPath id="clip0_0_1">
<rect width="25" height="25" fill="white" transform="translate(105 89)"/>
</clipPath>
</defs>
</svg>
