<svg width="50" height="50" viewBox="0 0 50 50" fill="none" xmlns="http://www.w3.org/2000/svg">
<path d="M5.55556 50C4.08213 50 2.66905 49.4732 1.62718 48.5355C0.585316 47.5979 0 46.3261 0 45L0 5C0 3.67392 0.585316 2.40215 1.62718 1.46447C2.66905 0.526787 4.08213 0 5.55556 0H44.4444C45.9179 0 47.3309 0.526787 48.3728 1.46447C49.4147 2.40215 50 3.67392 50 5V45C50 46.3261 49.4147 47.5979 48.3728 48.5355C47.3309 49.4732 45.9179 50 44.4444 50H5.55556ZM5.55556 35L5.55556 45H44.4444V35H5.55556ZM5.55556 30L44.4444 30V20L5.55556 20L5.55556 30ZM5.55556 15H44.4444V5H5.55556L5.55556 15Z" fill="#E6F5FB"/>
</svg>
