<svg width="211" height="155" viewBox="0 0 211 155" fill="none" xmlns="http://www.w3.org/2000/svg">
<path fill-rule="evenodd" clip-rule="evenodd" d="M77 155C150.958 155 211 94.9581 211 21C211 -52.9581 150.958 -113 77 -113C3.04193 -113 -57 -52.9581 -57 21C-57 94.9581 3.04193 155 77 155ZM161.097 140.369L171.877 151.149C173.813 153.084 176.959 153.084 178.895 151.149C180.835 149.208 180.835 146.067 178.895 144.131L168.12 133.352C166.179 131.416 163.038 131.416 161.097 133.352C159.162 135.287 159.162 138.434 161.097 140.369ZM-17.6288 150.896L-6.84926 140.121C-4.9137 138.181 -4.9137 135.039 -6.84926 133.098C-8.78482 131.163 -11.9313 131.163 -13.8669 133.098L-24.6464 143.878C-26.582 145.814 -26.582 148.96 -24.6464 150.896C-22.7109 152.836 -19.5644 152.836 -17.6288 150.896ZM-46.682 30.9259C-41.7488 93.1416 9.16126 142.493 72.037 144.975V130.076C17.3849 127.624 -26.8649 84.918 -31.7385 30.9259H-46.682ZM185.739 30.9259C180.865 84.918 136.615 127.624 81.963 130.076V144.975C144.839 142.493 195.749 93.1416 200.682 30.9259H185.739ZM-31.9122 137.109L-21.1376 126.334C-19.2021 124.393 -19.2021 121.252 -21.1376 119.311C-23.0732 117.376 -26.2197 117.376 -28.1553 119.311L-38.9348 130.091C-40.8704 132.026 -40.8704 135.173 -38.9348 137.109C-36.9943 139.049 -33.8527 139.049 -31.9122 137.109ZM174.885 126.081L185.664 136.86C187.6 138.796 190.746 138.796 192.682 136.86C194.622 134.925 194.622 131.778 192.682 129.843L181.907 119.063C179.967 117.128 176.825 117.128 174.885 119.063C172.949 120.999 172.949 124.145 174.885 126.081ZM189.173 112.294L199.952 123.073C201.888 125.009 205.035 125.009 206.97 123.073C208.906 121.138 208.906 117.991 206.97 116.056L196.191 105.276C194.255 103.341 191.108 103.341 189.173 105.276C187.237 107.212 187.237 110.358 189.173 112.294ZM-45.7043 122.825L-34.9247 112.046C-32.9892 110.11 -32.9892 106.963 -34.9247 105.028C-36.8603 103.087 -40.0068 103.087 -41.9424 105.028L-52.7219 115.803C-54.6575 117.743 -54.6575 120.885 -52.7219 122.825C-50.7864 124.761 -47.6399 124.761 -45.7043 122.825ZM88.385 69.0663C89.73 71.1656 90.5092 73.657 90.5092 76.3371C90.5092 83.7914 84.4544 89.8462 77 89.8462C69.5456 89.8462 63.4908 83.7914 63.4908 76.3371C63.4908 73.657 64.27 71.1656 65.615 69.0663C67.089 66.7585 66.419 63.6865 64.1112 62.2075C61.8084 60.7335 58.7313 61.4035 57.2573 63.7113C54.9198 67.3541 53.5649 71.6868 53.5649 76.3371C53.5649 89.2705 64.0665 99.7722 77 99.7722C89.9335 99.7722 100.435 89.2705 100.435 76.3371C100.435 71.6868 99.0802 67.3541 96.7427 63.7113C95.2687 61.4035 92.1916 60.7335 89.8888 62.2075C87.581 63.6865 86.911 66.7585 88.385 69.0663ZM81.963 77.7565V60.7037C81.963 57.9642 79.7396 55.7408 77 55.7408C74.2605 55.7408 72.037 57.9642 72.037 60.7037V77.7565C72.037 80.496 74.2605 82.7194 77 82.7194C79.7396 82.7194 81.963 80.496 81.963 77.7565ZM121.667 -94.776C107.805 -100.136 92.7425 -103.074 77 -103.074C61.2575 -103.074 46.1949 -100.136 32.3333 -94.776V-13.7407C32.3333 9.61497 52.4184 28.4444 77 28.4444C101.582 28.4444 121.667 9.61497 121.667 -13.7407V-94.776ZM22.4074 -90.4334C-18.7306 -70.2193 -47.0741 -27.8951 -47.0741 21H-32.1852C-32.1852 -19.3787 -10.2191 -54.6703 22.4074 -73.5593V-90.4334ZM131.593 -90.4334V-73.5593C164.219 -54.6703 186.185 -19.3787 186.185 21H201.074C201.074 -27.8951 172.731 -70.2193 131.593 -90.4334ZM77 -48.4815C57.8281 -48.4815 42.2593 -32.9127 42.2593 -13.7407C42.2593 5.43119 57.8281 21 77 21C96.1719 21 111.741 5.43119 111.741 -13.7407C111.741 -32.9127 96.1719 -48.4815 77 -48.4815ZM-52.7219 -73.4501L-41.9424 -62.6706C-40.0068 -60.735 -36.8603 -60.735 -34.9247 -62.6706C-32.9892 -64.6111 -32.9892 -67.7527 -34.9247 -69.6932L-45.7043 -80.4678C-47.6399 -82.4083 -50.7864 -82.4083 -52.7219 -80.4678C-54.6575 -78.5322 -54.6575 -75.3857 -52.7219 -73.4501ZM196.191 -62.9237L206.97 -73.6983C208.906 -75.6388 208.906 -78.7804 206.97 -80.7209C205.035 -82.6564 201.888 -82.6564 199.952 -80.7209L189.173 -69.9413C187.237 -68.0058 187.237 -64.8593 189.173 -62.9237C191.108 -60.9832 194.255 -60.9832 196.191 -62.9237ZM181.907 -76.7108L192.682 -87.4904C194.622 -89.4259 194.622 -92.5675 192.682 -94.508C190.746 -96.4436 187.6 -96.4436 185.664 -94.508L174.885 -83.7284C172.949 -81.7929 172.949 -78.6464 174.885 -76.7108C176.825 -74.7753 179.967 -74.7753 181.907 -76.7108ZM-38.9348 -87.7385L-28.1553 -76.959C-26.2197 -75.0234 -23.0732 -75.0234 -21.1376 -76.959C-19.2021 -78.8945 -19.2021 -82.041 -21.1376 -83.9766L-31.9122 -94.7561C-33.8527 -96.6917 -36.9943 -96.6917 -38.9348 -94.7561C-40.8704 -92.8206 -40.8704 -89.6741 -38.9348 -87.7385ZM-24.6464 -101.526L-13.8669 -90.7461C-11.9313 -88.8105 -8.78482 -88.8105 -6.84926 -90.7461C-4.9137 -92.6866 -4.9137 -95.8281 -6.84926 -97.7637L-17.6288 -108.543C-19.5644 -110.479 -22.7109 -110.479 -24.6464 -108.543C-26.582 -106.608 -26.582 -103.461 -24.6464 -101.526ZM168.12 -90.9992L178.895 -101.774C180.835 -103.714 180.835 -106.856 178.895 -108.796C176.959 -110.732 173.813 -110.732 171.877 -108.796L161.097 -98.0168C159.162 -96.0813 159.162 -92.9347 161.097 -90.9992C163.038 -89.0587 166.179 -89.0587 168.12 -90.9992Z" fill="#E6F5FB" fill-opacity="0.4"/>
</svg>
