<svg width="23" height="23" viewBox="0 0 23 23" fill="none" xmlns="http://www.w3.org/2000/svg">
<g clip-path="url(#clip0_19_933)">
<path d="M11.5 12.9375C12.2939 12.9375 12.9375 12.2939 12.9375 11.5C12.9375 10.7061 12.2939 10.0625 11.5 10.0625C10.7061 10.0625 10.0625 10.7061 10.0625 11.5C10.0625 12.2939 10.7061 12.9375 11.5 12.9375Z" fill="#6B6D6F"/>
<path d="M11.5 0C5.14912 0 0 5.14912 0 11.5C0 17.8509 5.14912 23 11.5 23C17.8509 23 23 17.8509 23 11.5C23 5.14912 17.8509 0 11.5 0ZM14.375 14.375L6.46875 16.5312L8.625 8.625L16.5312 6.46875L14.375 14.375Z" fill="#6B6D6F"/>
</g>
<defs>
<clipPath id="clip0_19_933">
<rect width="23" height="23" fill="white"/>
</clipPath>
</defs>
</svg>
