<svg width="226" height="218" viewBox="0 0 226 218" fill="none" xmlns="http://www.w3.org/2000/svg">
<path fill-rule="evenodd" clip-rule="evenodd" d="M112.637 152.054C136.6 152.054 156.054 132.6 156.054 108.637C156.054 84.6745 136.6 65.2206 112.637 65.2206C88.6745 65.2206 69.2206 84.6745 69.2206 108.637C69.2206 132.6 88.6745 152.054 112.637 152.054ZM139.885 147.314L143.378 150.806C144.005 151.433 145.025 151.433 145.652 150.806C146.281 150.178 146.281 149.16 145.652 148.533L142.161 145.04C141.532 144.413 140.514 144.413 139.885 145.04C139.258 145.667 139.258 146.687 139.885 147.314ZM81.9771 150.724L85.4697 147.233C86.0968 146.605 86.0968 145.587 85.4697 144.958C84.8426 144.331 83.8231 144.331 83.196 144.958L79.7033 148.451C79.0762 149.078 79.0762 150.097 79.7033 150.724C80.3304 151.353 81.3499 151.353 81.9771 150.724ZM72.5637 111.853C74.162 132.012 90.6572 148.002 111.029 148.806V143.979C93.3217 143.184 78.9845 129.347 77.4054 111.853H72.5637ZM147.869 111.853C146.29 129.347 131.953 143.184 114.245 143.979V148.806C134.617 148.002 151.113 132.012 152.711 111.853H147.869ZM77.3492 146.257L80.8402 142.766C81.4673 142.137 81.4673 141.12 80.8402 140.491C80.2131 139.864 79.1936 139.864 78.5664 140.491L75.0738 143.983C74.4467 144.611 74.4467 145.63 75.0738 146.257C75.7025 146.886 76.7204 146.886 77.3492 146.257ZM144.352 142.684L147.845 146.177C148.472 146.804 149.492 146.804 150.119 146.177C150.748 145.55 150.748 144.53 150.119 143.903L146.628 140.41C145.999 139.783 144.981 139.783 144.352 140.41C143.725 141.038 143.725 142.057 144.352 142.684ZM148.982 138.217L152.475 141.71C153.102 142.337 154.121 142.337 154.748 141.71C155.376 141.083 155.376 140.063 154.748 139.436L151.256 135.943C150.629 135.316 149.609 135.316 148.982 135.943C148.355 136.57 148.355 137.59 148.982 138.217ZM72.8804 141.629L76.3731 138.137C77.0002 137.509 77.0002 136.49 76.3731 135.863C75.746 135.234 74.7265 135.234 74.0993 135.863L70.6067 139.354C69.9796 139.983 69.9796 141.001 70.6067 141.629C71.2338 142.256 72.2533 142.256 72.8804 141.629ZM116.326 124.211C116.762 124.891 117.014 125.699 117.014 126.567C117.014 128.982 115.053 130.944 112.637 130.944C110.222 130.944 108.26 128.982 108.26 126.567C108.26 125.699 108.513 124.891 108.949 124.211C109.426 123.463 109.209 122.468 108.461 121.989C107.715 121.511 106.718 121.728 106.241 122.476C105.483 123.656 105.044 125.06 105.044 126.567C105.044 130.757 108.447 134.16 112.637 134.16C116.828 134.16 120.23 130.757 120.23 126.567C120.23 125.06 119.791 123.656 119.034 122.476C118.557 121.728 117.56 121.511 116.813 121.989C116.066 122.468 115.849 123.463 116.326 124.211ZM114.245 127.027V121.502C114.245 120.614 113.525 119.894 112.637 119.894C111.75 119.894 111.029 120.614 111.029 121.502V127.027C111.029 127.914 111.75 128.635 112.637 128.635C113.525 128.635 114.245 127.914 114.245 127.027ZM127.11 71.1253C122.618 69.3886 117.738 68.4366 112.637 68.4366C107.537 68.4366 102.656 69.3886 98.1651 71.1253V97.3811C98.1651 104.949 104.673 111.049 112.637 111.049C120.602 111.049 127.11 104.949 127.11 97.3811V71.1253ZM94.949 72.5323C81.6201 79.0818 72.4366 92.7951 72.4366 108.637H77.2607C77.2607 95.5544 84.3779 84.1197 94.949 77.9996V72.5323ZM130.326 72.5323V77.9996C140.897 84.1197 148.014 95.5544 148.014 108.637H152.838C152.838 92.7951 143.655 79.0818 130.326 72.5323ZM70.6067 78.035L74.0993 81.5276C74.7265 82.1547 75.746 82.1547 76.3731 81.5276C77.0002 80.8989 77.0002 79.881 76.3731 79.2522L72.8804 75.7612C72.2533 75.1325 71.2338 75.1325 70.6067 75.7612C69.9796 76.3883 69.9796 77.4078 70.6067 78.035ZM151.256 81.4456L154.748 77.9546C155.376 77.3258 155.376 76.3079 154.748 75.6792C154.121 75.0521 153.102 75.0521 152.475 75.6792L148.982 79.1718C148.355 79.799 148.355 80.8185 148.982 81.4456C149.609 82.0743 150.629 82.0743 151.256 81.4456ZM146.628 76.9785L150.119 73.4858C150.748 72.8587 150.748 71.8408 150.119 71.2121C149.492 70.585 148.472 70.585 147.845 71.2121L144.352 74.7047C143.725 75.3319 143.725 76.3514 144.352 76.9785C144.981 77.6056 145.999 77.6056 146.628 76.9785ZM75.0738 73.4054L78.5664 76.8981C79.1936 77.5252 80.2131 77.5252 80.8402 76.8981C81.4673 76.2709 81.4673 75.2515 80.8402 74.6243L77.3492 71.1317C76.7204 70.5046 75.7025 70.5046 75.0738 71.1317C74.4467 71.7588 74.4467 72.7783 75.0738 73.4054ZM79.7033 68.9383L83.196 72.431C83.8231 73.0581 84.8426 73.0581 85.4697 72.431C86.0968 71.8022 86.0968 70.7844 85.4697 70.1572L81.9771 66.6646C81.3499 66.0375 80.3304 66.0375 79.7033 66.6646C79.0762 67.2917 79.0762 68.3112 79.7033 68.9383ZM142.161 72.349L145.652 68.8579C146.281 68.2292 146.281 67.2113 145.652 66.5826C145.025 65.9554 144.005 65.9554 143.378 66.5826L139.885 70.0752C139.258 70.7023 139.258 71.7218 139.885 72.349C140.514 72.9777 141.532 72.9777 142.161 72.349Z" fill="#E6F5FB"/>
<path d="M112.721 97.2831C113.584 97.2831 114.283 96.5835 114.283 95.7206C114.283 94.8576 113.584 94.1581 112.721 94.1581C111.858 94.1581 111.158 94.8576 111.158 95.7206C111.158 96.5835 111.858 97.2831 112.721 97.2831Z" fill="#6B6D6F"/>
<path d="M112.721 83.2206C105.817 83.2206 100.221 88.8175 100.221 95.7206C100.221 102.624 105.817 108.221 112.721 108.221C119.624 108.221 125.221 102.624 125.221 95.7206C125.221 88.8175 119.624 83.2206 112.721 83.2206ZM115.846 98.8456L107.252 101.189L109.596 92.5956L118.189 90.2518L115.846 98.8456Z" fill="#6B6D6F"/>
<path d="M123.109 34.2206H120.645V26.9478H123.159C123.881 26.9478 124.501 27.0934 125.02 27.3846C125.541 27.6735 125.941 28.0889 126.22 28.6311C126.5 29.1732 126.639 29.8219 126.639 30.5771C126.639 31.3347 126.498 31.9857 126.217 32.5302C125.937 33.0747 125.534 33.4926 125.006 33.7838C124.48 34.075 123.848 34.2206 123.109 34.2206ZM121.962 33.0807H123.046C123.552 33.0807 123.975 32.9883 124.313 32.8037C124.652 32.6166 124.906 32.3385 125.077 31.9692C125.247 31.5975 125.332 31.1335 125.332 30.5771C125.332 30.0208 125.247 29.5591 125.077 29.1922C124.906 28.8229 124.654 28.547 124.32 28.3648C123.989 28.1801 123.577 28.0878 123.085 28.0878H121.962V33.0807Z" fill="#B2C9D6"/>
<path d="M116.705 214.781C114.329 218.328 109.113 218.328 106.736 214.781L84.4782 181.56C81.8073 177.574 84.6644 172.221 89.4628 172.221H133.978C138.777 172.221 141.634 177.574 138.963 181.56L116.705 214.781Z" fill="#E6F5FB"/>
<path d="M106.353 185.947C106.32 185.637 106.18 185.396 105.934 185.223C105.69 185.05 105.373 184.963 104.982 184.963C104.708 184.963 104.472 185.005 104.276 185.088C104.079 185.171 103.929 185.283 103.825 185.425C103.721 185.567 103.667 185.729 103.665 185.912C103.665 186.063 103.699 186.195 103.768 186.306C103.839 186.417 103.935 186.512 104.056 186.59C104.176 186.666 104.31 186.73 104.457 186.782C104.604 186.834 104.752 186.878 104.901 186.913L105.583 187.083C105.857 187.147 106.121 187.234 106.375 187.343C106.63 187.452 106.859 187.589 107.06 187.755C107.263 187.92 107.424 188.12 107.543 188.355C107.661 188.589 107.72 188.864 107.72 189.179C107.72 189.605 107.611 189.98 107.394 190.304C107.176 190.626 106.861 190.878 106.449 191.061C106.04 191.241 105.544 191.331 104.961 191.331C104.395 191.331 103.904 191.243 103.487 191.068C103.073 190.893 102.749 190.637 102.514 190.301C102.282 189.965 102.157 189.555 102.138 189.072H103.434C103.453 189.325 103.531 189.536 103.669 189.704C103.806 189.872 103.985 189.998 104.205 190.081C104.427 190.164 104.676 190.205 104.951 190.205C105.237 190.205 105.488 190.162 105.703 190.077C105.921 189.99 106.092 189.869 106.215 189.715C106.338 189.559 106.401 189.376 106.403 189.168C106.401 188.979 106.345 188.822 106.236 188.699C106.127 188.574 105.974 188.47 105.778 188.387C105.584 188.302 105.357 188.226 105.096 188.16L104.269 187.946C103.67 187.793 103.196 187.559 102.848 187.247C102.503 186.932 102.33 186.514 102.33 185.993C102.33 185.565 102.446 185.19 102.678 184.868C102.912 184.546 103.231 184.296 103.633 184.118C104.036 183.938 104.491 183.848 105 183.848C105.516 183.848 105.969 183.938 106.357 184.118C106.747 184.296 107.054 184.543 107.277 184.86C107.499 185.175 107.614 185.538 107.621 185.947H106.353Z" fill="#B2C9D6"/>
<path d="M113.479 183.948H114.797V188.699C114.797 189.22 114.674 189.678 114.428 190.074C114.184 190.469 113.84 190.778 113.398 191C112.955 191.221 112.438 191.331 111.846 191.331C111.252 191.331 110.733 191.221 110.291 191C109.848 190.778 109.505 190.469 109.261 190.074C109.017 189.678 108.895 189.22 108.895 188.699V186.324V183.948H110.212V188.589C110.212 188.892 110.279 189.162 110.411 189.399C110.546 189.636 110.736 189.821 110.979 189.956C111.223 190.089 111.512 190.155 111.846 190.155C112.18 190.155 112.469 190.089 112.712 189.956C112.959 189.821 113.148 189.636 113.281 189.399C113.413 189.162 113.479 188.892 113.479 188.589V186.269V183.948Z" fill="#B2C9D6"/>
<path d="M118.693 191.221H116.229V187.584V183.948H118.743C119.465 183.948 120.085 184.093 120.604 184.385C121.125 184.673 121.525 185.089 121.804 185.631C122.084 186.173 122.223 186.822 122.223 187.577C122.223 188.335 122.082 188.986 121.801 189.53C121.521 190.075 121.118 190.493 120.59 190.784C120.064 191.075 119.432 191.221 118.693 191.221ZM117.546 190.081H118.629C119.136 190.081 119.559 189.988 119.897 189.804C120.236 189.617 120.49 189.338 120.661 188.969C120.831 188.597 120.916 188.133 120.916 187.577C120.916 187.021 120.831 186.559 120.661 186.192C120.49 185.823 120.238 185.547 119.904 185.365C119.573 185.18 119.161 185.088 118.669 185.088H117.546V190.081Z" fill="#B2C9D6"/>
<path d="M222.781 109.736C226.328 112.113 226.328 117.329 222.781 119.705L189.56 141.963C185.574 144.634 180.221 141.777 180.221 136.978V92.4628C180.221 87.6644 185.574 84.8073 189.56 87.4782L222.781 109.736Z" fill="#E6F5FB"/>
<path d="M2.6603 109.736C-0.886772 112.113 -0.886765 117.329 2.66031 119.705L35.8809 141.963C39.8673 144.634 45.2206 141.777 45.2206 136.978V92.4628C45.2206 87.6644 39.8673 84.8073 35.8809 87.4782L2.6603 109.736Z" fill="#E6F5FB"/>
<path d="M13.8125 114.584C13.8125 115.368 13.6657 116.039 13.3721 116.598C13.0809 117.154 12.6832 117.58 12.1789 117.876C11.677 118.172 11.1077 118.32 10.4708 118.32C9.83401 118.32 9.26346 118.172 8.7592 117.876C8.2573 117.578 7.85957 117.15 7.56601 116.594C7.27482 116.035 7.12922 115.365 7.12922 114.584C7.12922 113.801 7.27482 113.131 7.56601 112.574C7.85957 112.016 8.2573 111.588 8.7592 111.292C9.26346 110.996 9.83401 110.848 10.4708 110.848C11.1077 110.848 11.677 110.996 12.1789 111.292C12.6832 111.588 13.0809 112.016 13.3721 112.574C13.6657 113.131 13.8125 113.801 13.8125 114.584ZM12.4879 114.584C12.4879 114.033 12.4015 113.567 12.2287 113.189C12.0582 112.807 11.8215 112.52 11.5184 112.326C11.2154 112.129 10.8662 112.031 10.4708 112.031C10.0755 112.031 9.72629 112.129 9.42326 112.326C9.12023 112.52 8.8823 112.807 8.70948 113.189C8.53903 113.567 8.4538 114.033 8.4538 114.584C8.4538 115.136 8.53903 115.602 8.70948 115.983C8.8823 116.362 9.12023 116.65 9.42326 116.846C9.72629 117.04 10.0755 117.137 10.4708 117.137C10.8662 117.137 11.2154 117.04 11.5184 116.846C11.8215 116.65 12.0582 116.362 12.2287 115.983C12.4015 115.602 12.4879 115.136 12.4879 114.584Z" fill="#B2C9D6"/>
<path d="M19.6425 110.948H20.96V115.699C20.96 116.22 20.8369 116.678 20.5907 117.074C20.3468 117.469 20.0036 117.778 19.5609 118C19.1182 118.221 18.6009 118.331 18.009 118.331C17.4148 118.331 16.8963 118.221 16.4536 118C16.0109 117.778 15.6676 117.469 15.4238 117.074C15.1799 116.678 15.058 116.22 15.058 115.699V110.948H16.3755V115.589C16.3755 115.892 16.4418 116.162 16.5744 116.399C16.7093 116.636 16.8987 116.821 17.1425 116.956C17.3864 117.089 17.6752 117.155 18.009 117.155C18.3428 117.155 18.6317 117.089 18.8755 116.956C19.1217 116.821 19.3111 116.636 19.4437 116.399C19.5763 116.162 19.6425 115.892 19.6425 115.589V110.948Z" fill="#B2C9D6"/>
<path d="M22.392 118.221V110.948H27.1221V112.052H23.7095V114.027H26.8771V115.131H23.7095V117.116H27.1505V118.221H22.392Z" fill="#B2C9D6"/>
<path d="M32.4186 112.947C32.3855 112.637 32.2458 112.396 31.9996 112.223C31.7558 112.05 31.4385 111.963 31.0479 111.963C30.7733 111.963 30.5377 112.005 30.3412 112.088C30.1447 112.171 29.9944 112.283 29.8902 112.425C29.7861 112.567 29.7328 112.729 29.7304 112.912C29.7304 113.063 29.7648 113.195 29.8334 113.306C29.9044 113.417 30.0003 113.512 30.1211 113.59C30.2418 113.666 30.3756 113.73 30.5223 113.782C30.6691 113.834 30.8171 113.878 30.9662 113.913L31.648 114.084C31.9227 114.147 32.1866 114.234 32.4399 114.343C32.6956 114.452 32.9241 114.589 33.1253 114.755C33.3289 114.92 33.4899 115.12 33.6083 115.355C33.7266 115.589 33.7858 115.864 33.7858 116.179C33.7858 116.605 33.6769 116.98 33.4591 117.304C33.2413 117.626 32.9265 117.878 32.5145 118.061C32.105 118.241 31.609 118.331 31.0266 118.331C30.4608 118.331 29.9695 118.243 29.5529 118.068C29.1386 117.893 28.8142 117.637 28.5799 117.301C28.3479 116.965 28.2224 116.555 28.2034 116.072H29.4996C29.5185 116.325 29.5967 116.536 29.734 116.704C29.8713 116.872 30.05 116.998 30.2702 117.081C30.4927 117.164 30.7413 117.205 31.0159 117.205C31.3024 117.205 31.5533 117.162 31.7688 117.077C31.9866 116.99 32.157 116.869 32.2801 116.715C32.4033 116.559 32.466 116.376 32.4684 116.168C32.466 115.979 32.4104 115.822 32.3015 115.699C32.1926 115.574 32.0399 115.47 31.8434 115.387C31.6492 115.302 31.422 115.226 31.1615 115.16L30.3341 114.946C29.7352 114.793 29.2617 114.559 28.9137 114.247C28.568 113.932 28.3952 113.514 28.3952 112.993C28.3952 112.565 28.5112 112.19 28.7432 111.868C28.9776 111.546 29.296 111.296 29.6985 111.118C30.1009 110.938 30.5567 110.848 31.0657 110.848C31.5818 110.848 32.0339 110.938 32.4222 111.118C32.8128 111.296 33.1194 111.543 33.3419 111.86C33.5645 112.175 33.6793 112.538 33.6864 112.947H32.4186Z" fill="#B2C9D6"/>
<path d="M34.6408 112.052V110.948H40.4433V112.052H38.1955V118.221H36.8886V112.052H34.6408Z" fill="#B2C9D6"/>
<path d="M185.353 118.221V110.948H190.083V112.052H186.67V114.027H189.838V115.131H186.67V117.116H190.111V118.221H185.353Z" fill="#B2C9D6"/>
<path d="M195.38 112.947C195.346 112.637 195.207 112.396 194.961 112.223C194.717 112.05 194.399 111.963 194.009 111.963C193.734 111.963 193.499 112.005 193.302 112.088C193.106 112.171 192.955 112.283 192.851 112.425C192.747 112.567 192.694 112.729 192.691 112.912C192.691 113.063 192.726 113.195 192.794 113.306C192.865 113.417 192.961 113.512 193.082 113.59C193.203 113.666 193.336 113.73 193.483 113.782C193.63 113.834 193.778 113.878 193.927 113.913L194.609 114.084C194.884 114.147 195.148 114.234 195.401 114.343C195.657 114.452 195.885 114.589 196.086 114.755C196.29 114.92 196.451 115.12 196.569 115.355C196.688 115.589 196.747 115.864 196.747 116.179C196.747 116.605 196.638 116.98 196.42 117.304C196.202 117.626 195.887 117.878 195.475 118.061C195.066 118.241 194.57 118.331 193.988 118.331C193.422 118.331 192.93 118.243 192.514 118.068C192.1 117.893 191.775 117.637 191.541 117.301C191.309 116.965 191.183 116.555 191.164 116.072H192.461C192.479 116.325 192.558 116.536 192.695 116.704C192.832 116.872 193.011 116.998 193.231 117.081C193.454 117.164 193.702 117.205 193.977 117.205C194.263 117.205 194.514 117.162 194.73 117.077C194.948 116.99 195.118 116.869 195.241 116.715C195.364 116.559 195.427 116.376 195.429 116.168C195.427 115.979 195.371 115.822 195.262 115.699C195.153 115.574 195.001 115.47 194.804 115.387C194.61 115.302 194.383 115.226 194.122 115.16L193.295 114.946C192.696 114.793 192.223 114.559 191.875 114.247C191.529 113.932 191.356 113.514 191.356 112.993C191.356 112.565 191.472 112.19 191.704 111.868C191.939 111.546 192.257 111.296 192.659 111.118C193.062 110.938 193.518 110.848 194.027 110.848C194.543 110.848 194.995 110.938 195.383 111.118C195.774 111.296 196.08 111.543 196.303 111.86C196.525 112.175 196.64 112.538 196.647 112.947H195.38Z" fill="#B2C9D6"/>
<path d="M197.602 112.052V110.948H203.404V112.052H201.156V118.221H199.85V112.052H197.602Z" fill="#B2C9D6"/>
<path d="M114.908 30.4635V31.5572H115.459V30.4635H114.908Z" fill="#B2C9D6"/>
<path d="M117.898 30.9251H116.46L116.799 31.5572H116.851C117.344 31.5572 117.769 31.4853 118.126 31.3413L117.898 30.9251Z" fill="#B2C9D6"/>
<path fill-rule="evenodd" clip-rule="evenodd" d="M112.895 30.5842C112.895 31.3678 112.749 32.039 112.455 32.5977C112.164 33.1541 111.766 33.5802 111.262 33.8761C110.76 34.172 110.191 34.32 109.554 34.32C108.917 34.32 108.346 34.172 107.842 33.8761C107.34 33.5778 106.943 33.1505 106.649 32.5942C106.358 32.0354 106.212 31.3655 106.212 30.5842C106.212 29.8006 106.358 29.1306 106.649 28.5743C106.943 28.0156 107.34 27.5882 107.842 27.2923C108.346 26.9964 108.917 26.8484 109.554 26.8484C110.191 26.8484 110.76 26.9964 111.262 27.2923C111.766 27.5882 112.164 28.0156 112.455 28.5743C112.749 29.1306 112.895 29.8006 112.895 30.5842ZM111.312 29.1886C111.484 29.5674 111.571 30.0326 111.571 30.5842C111.571 31.1358 111.484 31.6022 111.312 31.9834C111.141 32.3622 110.904 32.6498 110.601 32.8463C110.298 33.0404 109.949 33.1375 109.554 33.1375C109.158 33.1375 108.809 33.0404 108.506 32.8463C108.203 32.6498 107.965 32.3622 107.792 31.9834C107.622 31.6022 107.537 31.1358 107.537 30.5842C107.537 30.0326 107.622 29.5674 107.792 29.1886C107.965 28.8075 108.203 28.5198 108.506 28.3257C108.809 28.1292 109.158 28.0309 109.554 28.0309C109.949 28.0309 110.298 28.1292 110.601 28.3257C110.904 28.5198 111.141 28.8075 111.312 29.1886Z" fill="#B2C9D6"/>
<path d="M104.961 26.9478V34.2206H103.789L100.363 29.2667H100.302V34.2206H98.9848V26.9478H100.164L103.587 31.9052H103.651V26.9478H104.961Z" fill="#B2C9D6"/>
<path d="M114.141 26.9478V34.2206H115.459V31.5572H114.908V30.4635H115.459V28.0487H116.666C116.995 28.0487 117.264 28.0972 117.472 28.1943C117.68 28.289 117.835 28.4287 117.937 28.6133C118.039 28.7956 118.09 29.0158 118.09 29.2738C118.09 29.5319 118.039 29.7497 117.937 29.9273C117.838 30.1024 117.684 30.2362 117.476 30.3285C117.267 30.4185 117 30.4635 116.673 30.4635H115.459V31.5572H116.799L116.46 30.9251H117.898L118.126 31.3413C118.173 31.3222 118.219 31.3019 118.264 31.2802C118.647 31.0932 118.937 30.8292 119.134 30.4883C119.333 30.1451 119.432 29.7402 119.432 29.2738C119.432 28.8098 119.334 28.4038 119.137 28.0558C118.943 27.7054 118.656 27.4332 118.275 27.239C117.896 27.0449 117.427 26.9478 116.868 26.9478H114.141Z" fill="#B2C9D6"/>
<path d="M118.228 34.2206H119.699L118.126 31.3413C117.769 31.4853 117.344 31.5572 116.851 31.5572H116.799L118.228 34.2206Z" fill="#B2C9D6"/>
<path fill-rule="evenodd" clip-rule="evenodd" d="M107.736 2.66031L85.4782 35.8809C82.8073 39.8673 85.6644 45.2206 90.4628 45.2206H134.978C139.777 45.2206 142.634 39.8673 139.963 35.8809L117.705 2.6603C115.329 -0.886772 110.113 -0.886765 107.736 2.66031ZM104.961 34.2206V26.9478H103.651V31.9052H103.587L100.164 26.9478H98.9848V34.2206H100.302V29.2667H100.363L103.789 34.2206H104.961ZM112.455 32.5977C112.749 32.039 112.895 31.3678 112.895 30.5842C112.895 29.8006 112.749 29.1306 112.455 28.5743C112.164 28.0156 111.766 27.5882 111.262 27.2923C110.76 26.9964 110.191 26.8484 109.554 26.8484C108.917 26.8484 108.346 26.9964 107.842 27.2923C107.34 27.5882 106.943 28.0156 106.649 28.5743C106.358 29.1306 106.212 29.8006 106.212 30.5842C106.212 31.3655 106.358 32.0354 106.649 32.5942C106.943 33.1505 107.34 33.5778 107.842 33.8761C108.346 34.172 108.917 34.32 109.554 34.32C110.191 34.32 110.76 34.172 111.262 33.8761C111.766 33.5802 112.164 33.1541 112.455 32.5977ZM114.141 34.2206V26.9478H116.868C117.427 26.9478 117.896 27.0449 118.275 27.239C118.656 27.4332 118.943 27.7054 119.137 28.0558C119.334 28.4038 119.432 28.8098 119.432 29.2738C119.432 29.7402 119.333 30.1451 119.134 30.4883C118.937 30.8292 118.647 31.0932 118.264 31.2802C118.219 31.3019 118.173 31.3222 118.126 31.3413L119.699 34.2206H118.228L116.799 31.5572H115.459V34.2206H114.141ZM120.645 34.2206H123.109C123.848 34.2206 124.48 34.075 125.006 33.7838C125.534 33.4926 125.937 33.0747 126.217 32.5302C126.498 31.9857 126.639 31.3347 126.639 30.5771C126.639 29.8219 126.5 29.1732 126.22 28.6311C125.941 28.0889 125.541 27.6735 125.02 27.3846C124.501 27.0934 123.881 26.9478 123.159 26.9478H120.645V34.2206Z" fill="#E6F5FB"/>
<path d="M111.571 30.5842C111.571 30.0326 111.484 29.5674 111.312 29.1886C111.141 28.8075 110.904 28.5198 110.601 28.3257C110.298 28.1292 109.949 28.0309 109.554 28.0309C109.158 28.0309 108.809 28.1292 108.506 28.3257C108.203 28.5198 107.965 28.8075 107.792 29.1886C107.622 29.5674 107.537 30.0326 107.537 30.5842C107.537 31.1358 107.622 31.6022 107.792 31.9834C107.965 32.3622 108.203 32.6498 108.506 32.8463C108.809 33.0404 109.158 33.1375 109.554 33.1375C109.949 33.1375 110.298 33.0404 110.601 32.8463C110.904 32.6498 111.141 32.3622 111.312 31.9834C111.484 31.6022 111.571 31.1358 111.571 30.5842Z" fill="#E6F5FB"/>
<path d="M121.962 33.0807H123.046C123.552 33.0807 123.975 32.9883 124.313 32.8037C124.652 32.6166 124.906 32.3385 125.077 31.9692C125.247 31.5975 125.332 31.1335 125.332 30.5771C125.332 30.0208 125.247 29.5591 125.077 29.1922C124.906 28.8229 124.654 28.547 124.32 28.3648C123.989 28.1801 123.577 28.0878 123.085 28.0878H121.962V33.0807Z" fill="#E6F5FB"/>
<path fill-rule="evenodd" clip-rule="evenodd" d="M120.645 34.2206H123.109C123.848 34.2206 124.48 34.075 125.006 33.7838C125.534 33.4926 125.937 33.0747 126.217 32.5302C126.498 31.9857 126.639 31.3347 126.639 30.5771C126.639 29.8219 126.5 29.1732 126.22 28.6311C125.941 28.0889 125.541 27.6735 125.02 27.3846C124.501 27.0934 123.881 26.9478 123.159 26.9478H120.645V34.2206ZM121.962 33.0807H123.046C123.552 33.0807 123.975 32.9883 124.313 32.8037C124.652 32.6166 124.906 32.3385 125.077 31.9692C125.247 31.5975 125.332 31.1335 125.332 30.5771C125.332 30.0208 125.247 29.5591 125.077 29.1922C124.906 28.8229 124.654 28.547 124.32 28.3648C123.989 28.1801 123.577 28.0878 123.085 28.0878H121.962V33.0807Z" fill="#B2C9D6"/>
<path d="M116.673 30.4635C117 30.4635 117.267 30.4185 117.476 30.3285C117.684 30.2362 117.838 30.1024 117.937 29.9273C118.039 29.7497 118.09 29.5319 118.09 29.2738C118.09 29.0158 118.039 28.7956 117.937 28.6133C117.835 28.4287 117.68 28.289 117.472 28.1943C117.264 28.0972 116.995 28.0487 116.666 28.0487H115.459V30.4635H116.673Z" fill="#E6F5FB"/>
</svg>