<svg width="50" height="73" viewBox="0 0 50 73" fill="none" xmlns="http://www.w3.org/2000/svg">
<path d="M26.1259 1.29752C25.7319 0.688518 24.8408 0.688519 24.4468 1.29752L14.1914 17.1467C13.7609 17.8121 14.2385 18.69 15.031 18.69H35.5417C36.3342 18.69 36.8118 17.8121 36.3813 17.1467L26.1259 1.29752Z" fill="#23282B"/>
<path fill-rule="evenodd" clip-rule="evenodd" d="M25 72.5613C38.7981 72.5613 50 61.3594 50 47.5613C50 33.7631 38.7981 22.5613 25 22.5613C11.2019 22.5613 0 33.7631 0 47.5613C0 61.3594 11.2019 72.5613 25 72.5613ZM1.925 49.4131C2.84537 61.0205 12.3435 70.2279 24.0741 70.6909V67.9113C13.8778 67.4539 5.62222 59.4863 4.71296 49.4131H1.925ZM45.287 49.4131C44.3778 59.4863 36.1222 67.4539 25.9259 67.9113V70.6909C37.6565 70.2279 47.1546 61.0205 48.075 49.4131H45.287ZM27.1241 56.5289C27.375 56.9205 27.5204 57.3854 27.5204 57.8854C27.5204 59.2761 26.3907 60.4057 25 60.4057C23.6093 60.4057 22.4796 59.2761 22.4796 57.8854C22.4796 57.3854 22.625 56.9205 22.8759 56.5289C23.1509 56.0983 23.0259 55.5252 22.5954 55.2492C22.1657 54.9742 21.5917 55.0992 21.3167 55.5298C20.8806 56.2094 20.6278 57.0178 20.6278 57.8854C20.6278 60.2983 22.587 62.2576 25 62.2576C27.413 62.2576 29.3722 60.2983 29.3722 57.8854C29.3722 57.0178 29.1194 56.2094 28.6833 55.5298C28.4083 55.0992 27.8343 54.9742 27.4046 55.2492C26.9741 55.5252 26.8491 56.0983 27.1241 56.5289ZM25.9259 58.1502V54.9687C25.9259 54.4576 25.5111 54.0428 25 54.0428C24.4889 54.0428 24.0741 54.4576 24.0741 54.9687V58.1502C24.0741 58.6613 24.4889 59.0761 25 59.0761C25.5111 59.0761 25.9259 58.6613 25.9259 58.1502ZM33.3333 25.9613C30.7472 24.9613 27.937 24.4131 25 24.4131C22.063 24.4131 19.2528 24.9613 16.6667 25.9613V41.0798C16.6667 45.4372 20.4139 48.9502 25 48.9502C29.5861 48.9502 33.3333 45.4372 33.3333 41.0798V25.9613ZM14.8148 26.7715C7.13981 30.5428 1.85185 38.4391 1.85185 47.5613H4.62963C4.62963 40.0279 8.72778 33.4437 14.8148 29.9196V26.7715ZM35.1852 26.7715V29.9196C41.2722 33.4437 45.3704 40.0279 45.3704 47.5613H48.1481C48.1481 38.4391 42.8602 30.5428 35.1852 26.7715ZM25 34.5983C21.4231 34.5983 18.5185 37.5029 18.5185 41.0798C18.5185 44.6566 21.4231 47.5613 25 47.5613C28.5769 47.5613 31.4815 44.6566 31.4815 41.0798C31.4815 37.5029 28.5769 34.5983 25 34.5983Z" fill="#23282B"/>
</svg>
