<svg width="23" height="23" viewBox="0 0 23 23" fill="none" xmlns="http://www.w3.org/2000/svg">
<rect width="23" height="23" rx="11.5" fill="#6B6D6E"/>
<path d="M13.0922 11.5L16.1648 8.44444C16.6117 8 16.6117 7.33333 16.1648 6.88889C15.9972 6.66667 15.7179 6.5 15.4385 6.5C15.1592 6.5 14.8799 6.61111 14.6564 6.83333L11.5279 9.94444L8.45531 6.88889C8.00838 6.44444 7.28212 6.44444 6.89106 6.88889C6.6676 7.05556 6.5 7.33333 6.5 7.66667C6.5 8 6.61173 8.22222 6.8352 8.44444L9.90782 11.5L6.8352 14.5556C6.6676 14.7778 6.5 15.0556 6.5 15.3889C6.5 15.6667 6.61173 15.9444 6.8352 16.1667C7.05866 16.3889 7.33799 16.5 7.61732 16.5C7.89665 16.5 8.17598 16.3889 8.39944 16.1667L11.4721 13.1111L14.5447 16.1667C14.9916 16.6111 15.7179 16.6111 16.1089 16.1667C16.5559 15.7222 16.5559 15 16.1089 14.6111L13.0922 11.5Z" fill="#E6F5FB"/>
</svg>
