<svg width="23" height="23" viewBox="0 0 23 23" fill="none" xmlns="http://www.w3.org/2000/svg">
<rect width="23" height="23" rx="11.5" fill="#6B6D6E"/>
<path d="M14.8472 6.455C15.0772 6.455 15.2822 6.545 15.4622 6.725C15.6522 6.895 15.7472 7.115 15.7472 7.385C15.7472 7.475 15.7322 7.57 15.7022 7.67C15.6822 7.76 15.6422 7.85 15.5822 7.94L12.1772 12.815L12.4472 11.78V16.085C12.4472 16.345 12.3572 16.565 12.1772 16.745C12.0072 16.915 11.8072 17 11.5772 17C11.3272 17 11.1122 16.915 10.9322 16.745C10.7622 16.565 10.6772 16.345 10.6772 16.085V11.9L10.7972 12.38L7.55723 8.075C7.45723 7.945 7.38723 7.82 7.34723 7.7C7.30723 7.58 7.28723 7.47 7.28723 7.37C7.28723 7.1 7.39223 6.88 7.60223 6.71C7.81223 6.54 8.02723 6.455 8.24723 6.455C8.52723 6.455 8.77223 6.595 8.98223 6.875L11.8622 10.85L11.4422 10.79L14.0972 6.905C14.3072 6.605 14.5572 6.455 14.8472 6.455Z" fill="#E6F5FB"/>
</svg>
